<svg width="500" height="582" viewBox="0 0 500 582" fill="none" xmlns="http://www.w3.org/2000/svg">
<path d="M105.367 435.594C104.906 436.599 104.461 437.612 104.032 438.633C98.7675 451.169 96.0576 464.604 96.0576 478.172C96.0576 491.74 98.7675 505.175 104.032 517.71C109.297 530.245 117.014 541.635 126.743 551.228C136.47 560.823 148.018 568.434 160.727 573.627C173.437 578.819 187.059 581.492 200.816 581.492C214.573 581.492 228.195 578.819 240.905 573.627C253.614 568.434 265.162 560.823 274.889 551.228L467.662 361.117C487.744 341.308 499.026 314.443 499.026 286.43C499.026 261.269 491.13 237.027 473.886 218.004C465.377 214.378 455.97 213.266 446.861 214.953C438.714 216.461 431.245 221.232 425.028 226.835L241.899 412.195C238.5 415.654 234.593 418.525 230.341 420.729C232.588 419.365 234.803 417.942 236.985 416.46C236.799 416.534 236.613 416.608 236.426 416.68C236.608 416.559 236.789 416.438 236.971 416.316C237.158 416.191 237.344 416.066 237.531 415.939C237.163 416.188 236.795 416.435 236.426 416.68C208.671 435.107 175.548 444.07 142.12 442.176C129.563 441.465 117.226 439.236 105.367 435.594Z" fill="#104ADE"/>
<path d="M236.42 416.709C236.789 416.464 237.157 416.217 237.524 415.969C230.489 418.781 222.852 419.813 215.309 418.969C207.766 418.125 200.557 415.433 194.339 411.138C188.825 407.306 184.223 402.336 180.853 396.574C177.483 390.811 175.425 384.393 174.823 377.767C174.222 371.141 175.09 364.465 177.368 358.203C179.646 351.941 183.28 346.244 188.016 341.507L248.973 280.863L337.997 193.061C338.123 192.956 338.248 192.85 338.373 192.743C338.622 192.531 338.872 192.318 339.134 192.119L352.533 178.895C359.087 177.561 366.017 176.987 373.245 176.987C388.901 176.987 402.22 178.496 415.494 182.282C434.802 186.395 452.566 195.941 466.609 209.848C469.258 212.487 471.755 215.294 474.07 218.114C465.51 214.424 456.031 213.283 446.854 214.982C438.707 216.491 431.238 221.261 425.021 226.864L241.892 412.224C238.494 415.684 234.587 418.554 230.335 420.758C232.582 419.394 234.797 417.971 236.978 416.489C236.793 416.564 236.606 416.637 236.42 416.709Z" fill="#0038C7"/>
<path d="M384.173 64.0652C379.292 52.4459 372.134 41.8903 363.111 33.0032C352.675 22.7018 340.282 14.5298 326.642 8.95423C313.002 3.37869 298.382 0.508911 283.617 0.508911C268.851 0.508911 254.231 3.37869 240.591 8.95423C226.951 14.5298 214.559 22.7018 204.122 33.0032L45.4065 189.495C17.5381 216.982 1.60923 254.086 0.992245 292.953C0.375259 331.82 15.1186 369.398 42.1009 397.732L43.7537 399.317L45.4672 401.067C47.029 402.58 48.6688 404.013 50.3802 405.359C75.9774 427.322 108.245 440.28 142.117 442.199C175.989 444.118 209.548 434.89 237.527 415.962C230.492 418.775 222.855 419.807 215.312 418.963C207.769 418.119 200.56 415.427 194.342 411.132C188.828 407.3 184.226 402.33 180.856 396.567C177.485 390.804 175.428 384.387 174.826 377.761C174.225 371.134 175.093 364.459 177.371 358.197C179.649 351.935 183.283 346.237 188.019 341.5L248.976 280.857L338 193.054C338.379 192.74 338.743 192.411 339.138 192.112L363.111 168.453C376.697 155.066 385.951 138.004 389.7 119.427C393.45 100.85 391.526 81.5933 384.173 64.0951V64.0652Z" fill="#0F75FC"/>
</svg>
